<svg xmlns="http://www.w3.org/2000/svg" viewBox="0 0 500 500"><g id="freepik--Floor--inject-168"><polygon points="271.06 474.94 463.62 363.76 228.94 226.65 36.38 337.83 271.06 474.94" style="fill:#92E3A9"></polygon><polygon points="271.06 474.94 463.62 363.76 228.94 226.65 36.38 337.83 271.06 474.94" style="fill:#fff;opacity:0.8"></polygon><path d="M222.43,446.31a.14.14,0,0,1-.07-.26L414.93,334.87a.14.14,0,0,1,.19.05.15.15,0,0,1-.05.2L222.51,446.29A.12.12,0,0,1,222.43,446.31Z" style="fill:#92E3A9"></path><path d="M154.6,406.52a.15.15,0,0,1-.13-.07.15.15,0,0,1,.06-.19L347.09,295.08a.15.15,0,0,1,.19.06.14.14,0,0,1,0,.19L154.67,406.51Z" style="fill:#92E3A9"></path><path d="M86.76,366.74a.14.14,0,0,1-.12-.07.15.15,0,0,1,0-.2L279.25,255.3a.14.14,0,0,1,.14.24L86.83,366.72Z" style="fill:#92E3A9"></path><g style="opacity:0.6000000000000001"><path d="M222.43,446.31a.14.14,0,0,1-.07-.26L414.93,334.87a.14.14,0,0,1,.19.05.15.15,0,0,1-.05.2L222.51,446.29A.12.12,0,0,1,222.43,446.31Z" style="fill:#fff"></path><path d="M154.6,406.52a.15.15,0,0,1-.13-.07.15.15,0,0,1,.06-.19L347.09,295.08a.15.15,0,0,1,.19.06.14.14,0,0,1,0,.19L154.67,406.51Z" style="fill:#fff"></path><path d="M86.76,366.74a.14.14,0,0,1-.12-.07.15.15,0,0,1,0-.2L279.25,255.3a.14.14,0,0,1,.14.24L86.83,366.72Z" style="fill:#fff"></path></g><path d="M334.94,440.16a.16.16,0,0,0,.13-.08.15.15,0,0,0-.05-.19L96.21,302a.15.15,0,0,0-.2.05.14.14,0,0,0,.06.19l238.8,137.94Z" style="fill:#92E3A9"></path><path d="M402.78,400.37a.17.17,0,0,0,.13-.07.16.16,0,0,0-.06-.2L164.05,262.17a.15.15,0,0,0-.2.05.14.14,0,0,0,.05.19L402.71,400.35Z" style="fill:#92E3A9"></path><g style="opacity:0.6000000000000001"><path d="M334.94,440.16a.16.16,0,0,0,.13-.08.15.15,0,0,0-.05-.19L96.21,302a.15.15,0,0,0-.2.05.14.14,0,0,0,.06.19l238.8,137.94Z" style="fill:#fff"></path><path d="M402.78,400.37a.17.17,0,0,0,.13-.07.16.16,0,0,0-.06-.2L164.05,262.17a.15.15,0,0,0-.2.05.14.14,0,0,0,.05.19L402.71,400.35Z" style="fill:#fff"></path></g><polygon points="271.06 485.32 463.62 374.14 463.62 363.76 271.06 474.94 271.06 485.32" style="fill:#92E3A9"></polygon><polygon points="271.06 485.32 463.62 374.14 463.62 363.76 271.06 474.94 271.06 485.32" style="fill:#fff;opacity:0.4"></polygon><polygon points="271.06 485.32 271.06 474.94 36.38 337.83 36.38 348.21 271.06 485.32" style="fill:#92E3A9"></polygon><polygon points="271.06 485.32 271.06 474.94 36.38 337.83 36.38 348.21 271.06 485.32" style="fill:#fff;opacity:0.6000000000000001"></polygon></g><g id="freepik--Shadows--inject-168"><ellipse cx="205.84" cy="381.24" rx="54.68" ry="31.57" style="opacity:0.1"></ellipse><ellipse cx="336.98" cy="352.86" rx="54.68" ry="31.57" style="opacity:0.1"></ellipse><ellipse cx="235.26" cy="300.78" rx="54.68" ry="31.57" style="opacity:0.1"></ellipse></g><g id="freepik--Mirror--inject-168"><polygon points="463.62 151.79 463.62 363.76 337.01 289.79 331.16 286.37 316.85 278.01 305.12 271.15 251.54 239.86 245.69 236.43 228.94 226.65 228.94 14.68 289.48 50.05 301.21 56.9 314.31 64.55 317.23 66.26 383.11 104.75 386.05 106.46 404.19 117.06 410.04 120.48 463.62 151.79" style="fill:#f0f0f0"></polygon><polygon points="463.62 151.79 463.62 167.47 316.85 278.01 305.12 271.15 463.62 151.79" style="fill:#fff;opacity:0.5"></polygon><polygon points="301.21 56.9 228.94 111.32 228.94 95.64 289.48 50.05 301.21 56.9" style="fill:#fff;opacity:0.5"></polygon><polygon points="463.62 186.61 463.62 194.45 337.01 289.79 331.16 286.37 463.62 186.61" style="fill:#fff;opacity:0.5"></polygon><polygon points="410.04 120.48 251.54 239.86 245.69 236.43 404.19 117.06 410.04 120.48" style="fill:#fff;opacity:0.5"></polygon><polygon points="386.05 106.46 228.94 224.78 228.94 220.86 383.11 104.75 386.05 106.46" style="fill:#fff;opacity:0.5"></polygon><polygon points="317.23 66.26 228.94 132.77 228.94 128.85 314.31 64.55 317.23 66.26" style="fill:#fff;opacity:0.5"></polygon><path d="M330.66,288a.5.5,0,0,1-.5-.5V75.57a.5.5,0,0,1,.5-.5.5.5,0,0,1,.5.5v212A.5.5,0,0,1,330.66,288Z" style="fill:#e0e0e0"></path><polygon points="228.94 14.68 228.94 226.65 212.12 236.36 206.22 239.77 152.37 270.86 140.58 277.67 126.2 285.97 120.31 289.37 36.63 337.68 36.63 125.72 228.94 14.68" style="fill:#ebebeb"></polygon><polygon points="152.76 271.15 141.04 278.01 140.58 277.67 36.63 199.37 36.63 183.69 152.37 270.86 152.76 271.15" style="fill:#fff;opacity:0.2"></polygon><polygon points="156.67 56.9 228.94 111.32 228.94 95.64 168.41 50.05 156.67 56.9" style="fill:#fff;opacity:0.2"></polygon><polygon points="126.73 286.37 120.87 289.79 120.31 289.37 36.63 226.36 36.63 218.52 126.2 285.97 126.73 286.37" style="fill:#fff;opacity:0.2"></polygon><polygon points="47.84 120.48 206.34 239.86 212.2 236.43 53.7 117.06 47.84 120.48" style="fill:#fff;opacity:0.2"></polygon><polygon points="71.84 106.46 228.94 224.78 228.94 220.86 74.77 104.75 71.84 106.46" style="fill:#fff;opacity:0.2"></polygon><polygon points="140.65 66.26 228.94 132.77 228.94 128.85 143.57 64.55 140.65 66.26" style="fill:#fff;opacity:0.2"></polygon><path d="M463.62,297.61a3,3,0,0,1-1.51-.41L228.93,161,39.64,270.54a3,3,0,0,1-3-5.19L227.44,154.9a3,3,0,0,1,3,0L465.13,292a3,3,0,0,1-1.51,5.59Z" style="fill:#e0e0e0"></path><path d="M132.78,282.64a.5.5,0,0,1-.5-.5V70.19a.5.5,0,0,1,.5-.5.5.5,0,0,1,.5.5v212A.5.5,0,0,1,132.78,282.64Z" style="fill:#e0e0e0"></path></g><g id="freepik--musical-notes--inject-168"><path d="M137.86,219.45l-13-3.84L119,225.74a2.7,2.7,0,1,0,.21,2.83h0l5.71-9.12,9.54,2.49-4.74,9.12a2.69,2.69,0,1,0,.21,3h0Z" style="fill:#92E3A9"></path><path d="M114.45,187.46a4.66,4.66,0,0,0,4.3-3.35,8.34,8.34,0,0,1-4.14.72c-1.92-.31-4.63-2.23-10.21,2.23l7.93,14a3.67,3.67,0,0,0-.75-.07,4,4,0,1,0,3.94,4,3.79,3.79,0,0,0-.16-1.12,3.45,3.45,0,0,0-.31-.77v0l-7.21-12.72A9.29,9.29,0,0,1,114.45,187.46Z" style="fill:#92E3A9"></path><path d="M393.21,257l-7.88,4.75,2.37,7.62a1.82,1.82,0,0,0-1.55.58,1.84,1.84,0,0,0,2.71,2.48,1.86,1.86,0,0,0,.36-1.87h0l-2-7.05,5.63-3.65,2.41,6.57a1.82,1.82,0,0,0-1.49.58,1.84,1.84,0,1,0,3.1.71h0Z" style="fill:#92E3A9"></path><path d="M415.67,229.33a4.68,4.68,0,0,0,5.15-1.79,8.4,8.4,0,0,1-4.16-.64c-1.71-.92-3.66-3.6-10.39-1.16l3,15.81a3.59,3.59,0,0,0-.69-.3,3.95,3.95,0,1,0,2.47,5,4.36,4.36,0,0,0,.21-1.1,3.33,3.33,0,0,0-.06-.84v0l-2.74-14.36A9.28,9.28,0,0,1,415.67,229.33Z" style="fill:#92E3A9"></path><path d="M177.73,125.44,165.92,132l3.1,11.32a2.69,2.69,0,1,0,2.16,1.83h0l-2.52-10.47,8.46-5.07,3.19,9.77a2.69,2.69,0,1,0,2.31,2h0Z" style="fill:#92E3A9"></path><path d="M194.47,101.31a3.09,3.09,0,0,0,3.41-1.18,5.49,5.49,0,0,1-2.75-.43c-1.13-.6-2.42-2.38-6.87-.77l2,10.46a3.07,3.07,0,0,0-.45-.2,2.64,2.64,0,1,0,1.76,2.58,2.54,2.54,0,0,0,0-.55v0l-1.82-9.49A6.12,6.12,0,0,1,194.47,101.31Z" style="fill:#92E3A9"></path><path d="M307.34,154.64a4.08,4.08,0,0,0,4.54,1.45,7.31,7.31,0,0,1-2.57-2.63c-.72-1.54-.67-4.43-6.64-6.26l-6.19,12.62a3.27,3.27,0,0,0-.32-.57,3.45,3.45,0,1,0-.9,4.79,3.49,3.49,0,0,0,.72-.66,3.06,3.06,0,0,0,.4-.61l0,0L302,151.28A8.13,8.13,0,0,1,307.34,154.64Z" style="fill:#92E3A9"></path></g><g id="freepik--character-3--inject-168"><circle cx="323.25" cy="176.49" r="5.34" style="fill:#263238"></circle><circle cx="325.12" cy="168.26" r="5.34" style="fill:#263238"></circle><circle cx="336.8" cy="178.12" r="15.23" style="fill:#263238"></circle><path d="M344.45,188.53s8.48,18.75-15.84,18.75-19.82-9.49-28.84-9.49a8.62,8.62,0,0,0-5.94,2.63s.89-9.63,10.91-9.63,17.9,8.64,21.39-4.36Z" style="fill:#263238"></path><path d="M346.92,167a4.44,4.44,0,0,0,1.05-3.5c-.17-2.35,2-.65,2.23.7a4.27,4.27,0,0,1-2.47,3.78Z" style="fill:#263238"></path><path d="M347.73,167.5a4.48,4.48,0,0,0,3.41-1.33c1.74-1.59,1.76,1.2.82,2.18a4.28,4.28,0,0,1-4.5.39Z" style="fill:#263238"></path><path d="M370.14,337.93s1.2,8.32,3.4,10.05a6.12,6.12,0,0,1,1.52,3.39c0,1.69-3.84,5.47-3.84,8.34s-.52,8.08-.52,8.08l-9.4-1.49s1.23-14.27.54-17.57-2.23-9.17-2.23-9.17Z" style="fill:#ffa8a7"></path><path d="M373.54,348a2.64,2.64,0,0,1-.35,2.74,14.83,14.83,0,0,0-3,8.19c-.62,6.76-.95,8.59-4.92,8l-4-.6s-5.64,6.5-5.49,7.53,2.12,2.12,7.17,1.05,9.22-3,9.65-8.37.92-8.58,1.6-9.47l2.31,6.8a1.5,1.5,0,0,0,2-.31l-1.45-9.45s-1.11-6.48-3.58-6.1Z" style="fill:#263238"></path><path d="M315.79,324.83s-6.08,2-6.08,10.6-10,1.12-10,1.12l3-7.47a18.07,18.07,0,0,0,.57-11.66l-.9-3.1-4.47-15.49,13.44-3.24s.18,4.13.1,8.32a29.45,29.45,0,0,0,1,8.51Z" style="fill:#ffa8a7"></path><path d="M314.55,320.28a2.62,2.62,0,0,1-.76,2.65,15,15,0,0,0-4.21,7.65c-1.63,6.58-2.24,8.34-6.07,7.15l-3.83-1.19s-6.56,5.58-6.56,6.62,1.77,2.41,6.93,2.12,9.56-1.55,10.8-6.82,2.21-8.34,3-9.12l1.26,7.07a1.49,1.49,0,0,0,2.05,0v-9.56s-.12-6.57-2.62-6.57Z" style="fill:#263238"></path><path d="M321.73,242.54l-.39,4.56s-22.49,20-27.13,27c-3,4.54,3.65,24.72,3.65,24.72s8.05,2.89,13.44-3.24a48.77,48.77,0,0,0-2.52-12.7l24.85-17.34-1-22.56Z" style="fill:#37474f"></path><path d="M330.57,260.12s-4-3.75-5.55-7.73c0,0,0,2.93,4.3,8.86l2.27,5.73,2-1.43Z" style="fill:#263238"></path><path d="M276.44,251.23s-3.61,3.45-4.35,4.34-.91,1.6.56,1.59,5.89-4.41,5.89-4.41l7.7,2s1.78-1.58,4.61-6.48l-9.7-.37Z" style="fill:#ffa8a7"></path><path d="M285.41,244.09s-5.15,1.3-6.66,2.35-1.89,3.39-2.86,4.38-.54,1.9.87,1.63,2.79-2.44,2.79-2.44a6.72,6.72,0,0,0,3.61.44c1.56-.42,7.69-2.14,7.69-2.14Z" style="fill:#ffa8a7"></path><path d="M276.29,252.6a1,1,0,0,1-1-.45.1.1,0,0,1,0-.14.11.11,0,0,1,.14.05c.15.3.61.41,1.22.29,1.34-.27,2.71-2.37,2.73-2.4a.1.1,0,0,1,.12,0,6.81,6.81,0,0,0,3.54.43.1.1,0,0,1,.05.2,6.64,6.64,0,0,1-3.59-.41c-.26.38-1.51,2.15-2.82,2.41A2.8,2.8,0,0,1,276.29,252.6Z" style="fill:#f28f8f"></path><path d="M280.74,255a2.14,2.14,0,0,1-1.53.7,1.48,1.48,0,0,1-1.5-1.42c-.07-.77.81-4.18,2.46-3.35.73.36.51,2.46.51,2.46Z" style="fill:#ffa8a7"></path><path d="M277.77,253.72h0a.1.1,0,0,1-.08-.12c.15-.82.64-2.34,1.51-2.77a1.1,1.1,0,0,1,1,0c.78.39.57,2.47.56,2.56a.1.1,0,0,1-.11.09.12.12,0,0,1-.1-.11c.06-.57.1-2.09-.45-2.36a.89.89,0,0,0-.85,0,4,4,0,0,0-1.4,2.63A.11.11,0,0,1,277.77,253.72Z" style="fill:#f28f8f"></path><path d="M283,255.53a2.18,2.18,0,0,1-1.53.7,1.49,1.49,0,0,1-1.5-1.42c-.07-.77.81-4.19,2.46-3.35.88.44.51,2.46.51,2.46Z" style="fill:#ffa8a7"></path><path d="M286.24,254.79s-1.72,1.85-2.79,1.36-.89-2.32.59-4.24c.51-.66,1.66-.9,1.61.29a5.47,5.47,0,0,1-.4,2Z" style="fill:#ffa8a7"></path><path d="M280.11,255.46a.1.1,0,0,1-.09-.06,1.84,1.84,0,0,1-.15-.58c-.05-.58.42-2.71,1.42-3.38a1.09,1.09,0,0,1,1.19-.07c.94.47.57,2.48.56,2.56a.1.1,0,0,1-.12.09.1.1,0,0,1-.08-.12s.35-1.94-.45-2.35a.91.91,0,0,0-1,0,4.77,4.77,0,0,0-1.32,3.2,1.47,1.47,0,0,0,.13.52.1.1,0,0,1-.06.13Z" style="fill:#f28f8f"></path><path d="M282.85,255.56a.12.12,0,0,1-.1-.07c-.29-.9.17-2.29,1.21-3.65a1.33,1.33,0,0,1,1.34-.54c.18.06.48.27.46.9a5.47,5.47,0,0,1-.42,2,.1.1,0,0,1-.18-.08,5.62,5.62,0,0,0,.39-1.93c0-.26,0-.6-.32-.7a1.13,1.13,0,0,0-1.11.48c-1,1.3-1.45,2.62-1.17,3.46a.1.1,0,0,1-.07.13Z" style="fill:#f28f8f"></path><path d="M325.44,200.73h-.61a11.45,11.45,0,0,0-9,4.58c-2.8,3.73-14.48,20.78-14.48,20.78s-9.46,10.06-15.93,18l5.44,4.22s18-15.55,19.46-17.21,8.78-11,8.78-11Z" style="fill:#ffa8a7"></path><path d="M325.44,200.73h-.61a11.45,11.45,0,0,0-9,4.58c-1.19,1.59-4,5.6-6.82,9.67,2,.28,6.91,1.47,9.1,6.32l1-1.26Z" style="fill:#92E3A9"></path><path d="M342,200.35l5.8.45-.68,29.86-.34,1.56a13.51,13.51,0,0,0,0,5.52l.37,1.81s-12.73,6.47-25.13,0V208l4.08-7.19,6-.37Z" style="fill:#ffa8a7"></path><path d="M332.11,194.2v6.24s-6.36,7-.16,7.53S342,200.35,342,200.35V188.53Z" style="fill:#ffa8a7"></path><path d="M341.92,186.48v.36c-2.21,8.72-8,10.62-9.81,11.07L332,184.4l9.6-.05Z" style="fill:#f28f8f"></path><path d="M332.73,167.05c-3.66.3-11.28,3-11.4,12.64s1.37,17,6.38,17.34,16.19-4.22,16.71-16.75S336.31,166.76,332.73,167.05Z" style="fill:#ffa8a7"></path><polygon points="328.1 183.57 328.19 189.25 324.85 188.28 328.1 183.57" style="fill:#f28f8f"></polygon><path d="M333.08,183.42a1.16,1.16,0,1,1-1.17-1.14A1.15,1.15,0,0,1,333.08,183.42Z" style="fill:#263238"></path><path d="M325.47,182.72a1.16,1.16,0,0,1-2.31,0,1.16,1.16,0,1,1,2.31,0Z" style="fill:#263238"></path><path d="M322.87,180.35l2.25-1.37s-.88-.89-1.74-.34A1.58,1.58,0,0,0,322.87,180.35Z" style="fill:#92E3A9"></path><path d="M327.44,191.22a32.08,32.08,0,0,0,3.41-1.88s.73,1.86-.79,2.63A2.15,2.15,0,0,1,327.44,191.22Z" style="fill:#f28f8f"></path><path d="M322.87,180.35l2.25-1.37s-.88-.89-1.74-.34A1.58,1.58,0,0,0,322.87,180.35Z" style="fill:#263238"></path><path d="M338.77,182.9s-.22,4.07,2.12,4.07h4.59v-7.76c0-8.69-6.6-17.77-20.63-10.59C324.85,168.62,324.17,180.22,338.77,182.9Z" style="fill:#263238"></path><path d="M340.87,186.49a5.81,5.81,0,0,1,.5-2.57,2.73,2.73,0,0,1,2.39-1.83c2.73-.05,3.07,2.58,3,3.52a5.61,5.61,0,0,1-5.84,5.16Z" style="fill:#ffa8a7"></path><path d="M328.6,200.65s-.39.56-.93,1.42a4.88,4.88,0,0,0,3.89,7.47l2.34.12a8.85,8.85,0,0,0,8.63-5.37,13.77,13.77,0,0,1,2.16-3.73l3.14.24,3.28,13.52-3,16.34s-15.48,5.7-27.15,0c0,0,.08-5.19-.38-6.75,0,0-3.73-1.26-4-6.38-.34-6.84,8.88-16.8,8.88-16.8Z" style="fill:#92E3A9"></path><path d="M328.6,200.65s-.39.56-.93,1.42a4.88,4.88,0,0,0,3.89,7.47l2.34.12a8.85,8.85,0,0,0,8.63-5.37,13.77,13.77,0,0,1,2.16-3.73l3.14.24,3.28,13.52-3,16.34s-15.48,5.7-27.15,0c0,0,.08-5.19-.38-6.75,0,0-3.73-1.26-4-6.38-.34-6.84,8.88-16.8,8.88-16.8Z" style="opacity:0.2"></path><path d="M347.83,200.8s-6.67,10.34,3.28,13.52c5.3,1.7,15.32,2.27,20.9,2.46a6.32,6.32,0,0,0,5.81-3.39l10-19.12-5.32-4.37s-7.07,9.54-10.53,15.42C372,205.32,351,201,347.83,200.8Z" style="fill:#ffa8a7"></path><path d="M351.11,214.32a52.88,52.88,0,0,0,9.73,1.73,16.31,16.31,0,0,1,.72-12.81l-4.62-.89-9.11-1.55S341.16,211.14,351.11,214.32Z" style="fill:#92E3A9"></path><path d="M387.51,179.56s2.56-4.27,3.26-5.19,1.36-1.24,1.68.19-3,6.72-3,6.72l3.69,7.06s-1.15,2.08-5.3,5.93l-2.5-9.38Z" style="fill:#ffa8a7"></path><path d="M382.52,189.9s.13-5.32.82-7,2.9-2.59,3.64-3.76,1.74-1,1.78.49-1.76,3.27-1.76,3.27a6.64,6.64,0,0,1,1.22,3.41c-.06,1.61-.38,8-.38,8Z" style="fill:#ffa8a7"></path><path d="M388.22,186.39h0a.1.1,0,0,1-.1-.1,6.55,6.55,0,0,0-1.2-3.35.11.11,0,0,1,0-.14s1.77-1.82,1.73-3.19c0-.62-.22-1-.55-1.12a.09.09,0,0,1-.07-.12.1.1,0,0,1,.12-.08c.42.11.68.6.7,1.31,0,1.33-1.41,3-1.73,3.29a6.52,6.52,0,0,1,1.2,3.41A.11.11,0,0,1,388.22,186.39Z" style="fill:#f28f8f"></path><path d="M392.13,182.93a2.15,2.15,0,0,0,.34-1.65,1.47,1.47,0,0,0-1.71-1.14c-.77.09-3.9,1.7-2.72,3.13.51.63,2.5-.05,2.5-.05Z" style="fill:#ffa8a7"></path><path d="M388.87,183.64a1.17,1.17,0,0,1-.91-.3,1.09,1.09,0,0,1-.25-1c.23-.94,1.6-1.76,2.37-2.08a.1.1,0,1,1,.08.18c-1,.41-2.07,1.19-2.26,1.95a.92.92,0,0,0,.21.83c.39.47,1.87.1,2.4-.08a.1.1,0,0,1,.07.19A6.33,6.33,0,0,1,388.87,183.64Z" style="fill:#f28f8f"></path><path d="M393.14,185a2.18,2.18,0,0,0,.35-1.65,1.48,1.48,0,0,0-1.71-1.14c-.78.09-3.91,1.71-2.73,3.13.63.76,2.51-.05,2.51-.05Z" style="fill:#ffa8a7"></path><path d="M393.14,188.34s1.42-2.09.71-3-2.46-.35-4,1.51c-.53.64-.51,1.82.64,1.51a5.45,5.45,0,0,0,1.83-.83Z" style="fill:#ffa8a7"></path><path d="M389.94,185.79a1.21,1.21,0,0,1-1-.36,1.12,1.12,0,0,1-.2-1.18c.45-1.12,2.41-2.05,3-2.13a2,2,0,0,1,.6,0,.1.1,0,0,1,.08.12.1.1,0,0,1-.12.08,1.57,1.57,0,0,0-.53,0,4.74,4.74,0,0,0-2.83,2,.91.91,0,0,0,.17,1c.57.69,2.37-.07,2.39-.08a.1.1,0,0,1,.13.05.11.11,0,0,1,0,.14A5.05,5.05,0,0,1,389.94,185.79Z" style="fill:#f28f8f"></path><path d="M390.14,188.5a.66.66,0,0,1-.61-.31,1.29,1.29,0,0,1,.23-1.42c1.09-1.31,2.35-2.07,3.29-2a.1.1,0,0,1,.1.11.1.1,0,0,1-.12.09c-.88-.08-2.07.65-3.11,1.91a1.13,1.13,0,0,0-.22,1.18c.16.26.5.23.75.16a5.11,5.11,0,0,0,1.79-.81.12.12,0,0,1,.15,0,.11.11,0,0,1,0,.14,5.4,5.4,0,0,1-1.86.85A1.41,1.41,0,0,1,390.14,188.5Z" style="fill:#f28f8f"></path><path d="M347.67,241.19s11.25,11,11.87,33.43,2.34,22,2.34,22,7.38,11.24,7.82,21c.29,6.42.44,20.35.44,20.35s-3.31,5.42-10.53,1.63l-10.83-35.78-18.21-43.66V242.66Z" style="fill:#37474f"></path><path d="M322,238.25s3.42,2.61,12.06,2.61c8.21,0,12.53-4,12.53-4l1.06,4.34a25.5,25.5,0,0,1-25.94,1.35Z" style="fill:#455a64"></path><path d="M354.69,323.31l4.92,16.25c7.22,3.79,10.53-1.63,10.53-1.63s-.13-12.12-.38-19a10.08,10.08,0,0,1-5.65,4.84C359.13,325.38,356,324.05,354.69,323.31Z" style="fill:#ffa8a7"></path></g><g id="freepik--character-2--inject-168"><path d="M227.52,113s-6.79-2.36-8.45,4.6,3.45,13.72-4.23,16c0,0,4.52,3.76,8.5-3.26l3.39,14.29s0,.78-1.19,1.37c0,0,19.33,4.3,23-5.34a4.11,4.11,0,0,1,.85,4.23s5.7-2.31,4.1-9.68c0,0,4.5-.13,5.57-3.8,0,0-7.21.35-7.16-7.61.05-9.19-4.79-7.86-4.79-7.86S241.2,107.21,227.52,113Z" style="fill:#263238"></path><path d="M214.81,272.49s-6.08,2-6.08,10.6-10,1.12-10,1.12l3-7.46a18.07,18.07,0,0,0,.57-11.66l-.9-3.1-4.47-15.49,13.44-3.24s.18,4.13.1,8.32a29.8,29.8,0,0,0,1,8.51Z" style="fill:#ffa8a7"></path><path d="M213.57,268a2.63,2.63,0,0,1-.76,2.65,14.9,14.9,0,0,0-4.21,7.65c-1.63,6.58-2.24,8.34-6.07,7.15l-3.83-1.19s-6.56,5.57-6.56,6.62,1.77,2.41,6.93,2.12,9.56-1.55,10.8-6.82,2.21-8.34,3-9.12l1.26,7.07a1.49,1.49,0,0,0,2.05,0v-9.56s-.12-6.57-2.62-6.57Z" style="fill:#263238"></path><path d="M220.75,190.21l-.39,4.56s-22.49,20-27.13,27c-3,4.54,3.65,24.72,3.65,24.72s8.05,2.89,13.44-3.24a48.69,48.69,0,0,0-2.52-12.7l24.86-17.34-1-22.56Z" style="fill:#37474f"></path><path d="M229.59,207.79s-4-3.76-5.55-7.73c0,0,0,2.93,4.3,8.86l2.27,5.73,2-1.43Z" style="fill:#263238"></path><path d="M175.46,198.9s-3.61,3.45-4.35,4.33-.91,1.6.56,1.59,5.89-4.4,5.89-4.4l7.7,2s1.78-1.58,4.61-6.48l-9.7-.37Z" style="fill:#ffa8a7"></path><path d="M184.44,191.76s-5.16,1.3-6.67,2.35-1.89,3.39-2.86,4.38-.54,1.9.87,1.63,2.8-2.44,2.8-2.44a6.68,6.68,0,0,0,3.6.44c1.56-.42,7.69-2.14,7.69-2.14Z" style="fill:#ffa8a7"></path><path d="M175.31,200.27a1,1,0,0,1-.95-.45.1.1,0,0,1,0-.14.11.11,0,0,1,.14,0c.15.3.61.4,1.22.29,1.34-.27,2.72-2.38,2.73-2.4a.1.1,0,0,1,.12,0,6.56,6.56,0,0,0,3.54.44.11.11,0,0,1,.13.07.11.11,0,0,1-.08.13,6.52,6.52,0,0,1-3.59-.42c-.25.39-1.51,2.16-2.81,2.42A3,3,0,0,1,175.31,200.27Z" style="fill:#f28f8f"></path><path d="M179.76,202.67a2.14,2.14,0,0,1-1.53.7,1.49,1.49,0,0,1-1.5-1.42c-.07-.77.81-4.18,2.46-3.35.73.36.51,2.46.51,2.46Z" style="fill:#ffa8a7"></path><path d="M176.79,201.38h0a.1.1,0,0,1-.08-.12c.15-.82.64-2.34,1.51-2.77a1.1,1.1,0,0,1,1,0c.78.39.57,2.47.56,2.56a.1.1,0,0,1-.11.09.1.1,0,0,1-.09-.11c.05-.57.09-2.09-.45-2.36a.91.91,0,0,0-.86,0,4,4,0,0,0-1.4,2.63A.1.1,0,0,1,176.79,201.38Z" style="fill:#f28f8f"></path><path d="M182,203.2a2.18,2.18,0,0,1-1.53.7,1.47,1.47,0,0,1-1.49-1.42c-.08-.78.8-4.19,2.45-3.35.88.44.51,2.45.51,2.45Z" style="fill:#ffa8a7"></path><path d="M185.26,202.46s-1.72,1.85-2.79,1.36-.88-2.33.59-4.25c.51-.65,1.66-.9,1.62.3a5.59,5.59,0,0,1-.41,2Z" style="fill:#ffa8a7"></path><path d="M179.13,203.13a.11.11,0,0,1-.09-.06,1.84,1.84,0,0,1-.15-.58c0-.58.42-2.71,1.42-3.39a1.09,1.09,0,0,1,1.19-.06c.94.47.58,2.48.56,2.56a.1.1,0,0,1-.12.08.09.09,0,0,1-.08-.11s.35-1.95-.45-2.35a.91.91,0,0,0-1,.05,4.75,4.75,0,0,0-1.32,3.2,1.42,1.42,0,0,0,.13.51.1.1,0,0,1-.06.14Z" style="fill:#f28f8f"></path><path d="M181.87,203.23a.12.12,0,0,1-.1-.07c-.29-.9.17-2.3,1.21-3.65a1.3,1.3,0,0,1,1.34-.54c.18.06.48.27.46.9a5.47,5.47,0,0,1-.42,2,.1.1,0,1,1-.18-.08,5.62,5.62,0,0,0,.39-1.93c0-.26,0-.6-.32-.7a1.14,1.14,0,0,0-1.11.48c-1,1.29-1.44,2.62-1.17,3.46a.09.09,0,0,1-.07.12Z" style="fill:#f28f8f"></path><path d="M224.46,148.39h-.61a11.44,11.44,0,0,0-9,4.59c-2.8,3.73-14.48,20.78-14.48,20.78s-9.46,10-15.92,18l5.43,4.22s18-15.55,19.46-17.21,8.78-11.05,8.78-11.05Z" style="fill:#ffa8a7"></path><path d="M241.05,148l5.81.45-.69,29.86-.33,1.56a13.17,13.17,0,0,0,0,5.52l.36,1.81s-12.73,6.47-25.13,0V155.66l4.08-7.18,6-.37Z" style="fill:#ffa8a7"></path><path d="M231.13,141.87v6.24s-6.35,7-.16,7.53S241.05,148,241.05,148V136.2Z" style="fill:#ffa8a7"></path><path d="M240.94,134.15v.36c-2.21,8.72-8,10.62-9.81,11.06l-.07-13.5,9.6,0Z" style="fill:#f28f8f"></path><path d="M231.75,114.72c-3.66.3-11.28,3-11.39,12.64s1.36,17,6.37,17.34,16.2-4.22,16.72-16.76S235.33,114.43,231.75,114.72Z" style="fill:#ffa8a7"></path><polygon points="227.12 131.24 227.21 136.91 223.87 135.94 227.12 131.24" style="fill:#f28f8f"></polygon><path d="M232.1,131.09a1.16,1.16,0,1,1-1.17-1.14A1.15,1.15,0,0,1,232.1,131.09Z" style="fill:#263238"></path><path d="M224.49,130.39a1.16,1.16,0,1,1-1.17-1.14A1.15,1.15,0,0,1,224.49,130.39Z" style="fill:#263238"></path><path d="M221.9,128l2.24-1.37s-.88-.89-1.74-.34A1.59,1.59,0,0,0,221.9,128Z" style="fill:#92E3A9"></path><path d="M226.47,138.89a32.85,32.85,0,0,0,3.4-1.88s.73,1.86-.79,2.63A2.14,2.14,0,0,1,226.47,138.89Z" style="fill:#f28f8f"></path><path d="M221.9,128l2.24-1.37s-.88-.89-1.74-.34A1.59,1.59,0,0,0,221.9,128Z" style="fill:#263238"></path><path d="M237.8,130.57s-.23,4.06,2.11,4.06h4.59v-7.75c0-8.69-6.6-17.77-20.63-10.59C223.87,116.29,223.19,127.89,237.8,130.57Z" style="fill:#263238"></path><path d="M239.89,134.16a5.86,5.86,0,0,1,.5-2.58,2.72,2.72,0,0,1,2.39-1.82c2.73,0,3.07,2.58,3,3.52a5.6,5.6,0,0,1-5.85,5.15Z" style="fill:#ffa8a7"></path><path d="M231.13,148.11s-1.47,6.19-2.61,11.69a1.74,1.74,0,0,0,3.14,1.34c3.49-5.09,8-11.54,9.39-13.12l5.81.45L250.13,162l-4.25,17.87a12.83,12.83,0,0,0-.25,4.66h0a14.7,14.7,0,0,1-7.75,4.33c-5.1,1-13.9-.33-16.84-2.93,0,0-.85-10.67-1.35-13.7a1.2,1.2,0,0,0-.63-.87c-1-.54-3.28-2.2-3.48-6.15-.34-6.84,8.88-16.81,8.88-16.81Z" style="fill:#92E3A9"></path><path d="M246.86,148.47s-6.68,10.34,3.27,13.52c5.3,1.69,15.33,2.27,20.9,2.46a6.34,6.34,0,0,0,5.81-3.39l10-19.12-5.32-4.37S274.47,147.11,271,153C271,153,250,148.71,246.86,148.47Z" style="fill:#ffa8a7"></path><path d="M286.53,127.23s2.56-4.27,3.26-5.2,1.36-1.23,1.68.2-3,6.72-3,6.72l3.69,7.06s-1.15,2.08-5.3,5.93l-2.5-9.38Z" style="fill:#ffa8a7"></path><path d="M281.54,137.57s.13-5.32.82-7,2.9-2.58,3.64-3.75,1.74-1,1.78.49-1.76,3.26-1.76,3.26a6.76,6.76,0,0,1,1.23,3.42c-.07,1.61-.39,8-.39,8Z" style="fill:#ffa8a7"></path><path d="M287.25,134.06h0a.11.11,0,0,1-.1-.1,6.64,6.64,0,0,0-1.2-3.36.09.09,0,0,1,0-.13s1.77-1.82,1.73-3.19c0-.62-.22-1-.55-1.12a.11.11,0,0,1-.07-.13.1.1,0,0,1,.12-.07c.42.11.68.6.7,1.31,0,1.33-1.41,3-1.73,3.28a6.56,6.56,0,0,1,1.2,3.41A.1.1,0,0,1,287.25,134.06Z" style="fill:#f28f8f"></path><path d="M291.15,130.59a2.15,2.15,0,0,0,.35-1.64,1.49,1.49,0,0,0-1.72-1.15c-.77.1-3.9,1.71-2.72,3.14.51.63,2.5-.05,2.5-.05Z" style="fill:#ffa8a7"></path><path d="M287.89,131.31a1.17,1.17,0,0,1-.91-.3,1.09,1.09,0,0,1-.25-1c.23-.95,1.6-1.76,2.37-2.09a.11.11,0,0,1,.14.06.1.1,0,0,1-.06.13c-.95.41-2.07,1.19-2.25,2a.87.87,0,0,0,.21.83c.38.47,1.86.1,2.39-.08a.1.1,0,1,1,.07.19A6.24,6.24,0,0,1,287.89,131.31Z" style="fill:#f28f8f"></path><path d="M292.17,132.68a2.17,2.17,0,0,0,.34-1.64,1.49,1.49,0,0,0-1.71-1.15c-.77.1-3.91,1.72-2.73,3.14.63.76,2.51-.05,2.51-.05Z" style="fill:#ffa8a7"></path><path d="M292.16,136s1.43-2.09.71-3-2.46-.35-4,1.51c-.53.64-.51,1.82.64,1.51a5.69,5.69,0,0,0,1.83-.83Z" style="fill:#ffa8a7"></path><path d="M289,133.46a1.22,1.22,0,0,1-1-.36,1.12,1.12,0,0,1-.2-1.18c.45-1.12,2.41-2,3-2.13a1.94,1.94,0,0,1,.59,0,.1.1,0,0,1,.08.12.1.1,0,0,1-.12.08,1.57,1.57,0,0,0-.53,0,4.74,4.74,0,0,0-2.83,2,.93.93,0,0,0,.17,1c.57.69,2.37-.07,2.39-.08a.1.1,0,0,1,.13.05.11.11,0,0,1-.05.14A5,5,0,0,1,289,133.46Z" style="fill:#f28f8f"></path><path d="M289.16,136.16a.66.66,0,0,1-.61-.3,1.31,1.31,0,0,1,.23-1.43c1.09-1.31,2.35-2.07,3.29-2a.1.1,0,0,1,.1.11.1.1,0,0,1-.11.09c-.89-.08-2.07.65-3.12,1.91a1.13,1.13,0,0,0-.22,1.18c.16.26.5.23.76.16a5.6,5.6,0,0,0,1.79-.81.11.11,0,0,1,.14,0,.1.1,0,0,1,0,.14,5.62,5.62,0,0,1-1.86.85A1.35,1.35,0,0,1,289.16,136.16Z" style="fill:#f28f8f"></path><path d="M269.16,285.6s1.21,8.32,3.4,10a6.17,6.17,0,0,1,1.52,3.4c0,1.69-3.84,5.47-3.84,8.34s-.52,8.08-.52,8.08l-9.4-1.49s1.23-14.27.55-17.57-2.24-9.17-2.24-9.17Z" style="fill:#ffa8a7"></path><path d="M272.56,295.64a2.64,2.64,0,0,1-.35,2.75,14.83,14.83,0,0,0-3,8.19c-.62,6.75-.95,8.59-4.92,8l-4-.6s-5.64,6.5-5.49,7.53,2.12,2.12,7.17,1.05,9.22-3,9.65-8.37.92-8.58,1.6-9.47l2.31,6.8a1.5,1.5,0,0,0,2-.31l-1.45-9.45s-1.11-6.48-3.58-6.11Z" style="fill:#263238"></path><path d="M253.71,271l4.92,16.25c7.22,3.79,10.53-1.63,10.53-1.63s-.13-12.12-.38-19a10,10,0,0,1-5.64,4.83C258.15,273.05,255,271.72,253.71,271Z" style="fill:#ffa8a7"></path><path d="M263.14,271.47a10,10,0,0,0,5.64-4.83s0,.16-.06-1.39c-.43-9.74-7.81-21-7.81-21s-1.74.48-2.35-22-11.87-33.44-11.87-33.44l-17.1,1.47v17.47l18.22,43.66,5.9,19.53C255,271.72,258.15,273.05,263.14,271.47Z" style="fill:#37474f"></path><path d="M221,185.92s3.42,2.61,12.06,2.61c8.21,0,12.53-4,12.53-4l1.06,4.33a25.49,25.49,0,0,1-25.94,1.36Z" style="fill:#455a64"></path></g><g id="freepik--character-1--inject-168"><path d="M238.66,366.31s1.21,8.33,3.4,10.05a6.12,6.12,0,0,1,1.52,3.39c0,1.69-3.84,5.47-3.84,8.34s-.52,8.08-.52,8.08l-9.4-1.48s1.23-14.28.54-17.58-2.23-9.16-2.23-9.16Z" style="fill:#945959"></path><path d="M242.06,376.36a2.62,2.62,0,0,1-.35,2.74,14.83,14.83,0,0,0-3,8.2c-.62,6.75-.95,8.58-4.92,8l-4-.59s-5.64,6.49-5.49,7.52,2.12,2.12,7.17,1.05,9.22-3,9.65-8.37.92-8.58,1.6-9.47l2.31,6.8a1.5,1.5,0,0,0,2-.31l-1.45-9.45s-1.11-6.48-3.58-6.1Z" style="fill:#92E3A9"></path><path d="M184.31,353.21s-6.08,2-6.08,10.6-10,1.12-10,1.12l3-7.46a18.11,18.11,0,0,0,.57-11.67l-.9-3.1-4.47-15.49L179.81,324s.18,4.13.1,8.33a29.38,29.38,0,0,0,1,8.5Z" style="fill:#945959"></path><path d="M180.93,340.8s-1.13,1.55-4.52,2.59a6.28,6.28,0,0,1-5.57-.69l-4.47-15.49L179.81,324s.18,4.13.1,8.33A29.38,29.38,0,0,0,180.93,340.8Z" style="fill:#92E3A9"></path><path d="M183.07,348.66a2.65,2.65,0,0,1-.76,2.66A14.86,14.86,0,0,0,178.1,359c-1.63,6.59-2.24,8.35-6.07,7.16l-3.83-1.19s-6.56,5.57-6.56,6.61,1.77,2.41,6.93,2.12,9.56-1.54,10.8-6.82,2.21-8.34,3-9.12l1.26,7.07a1.49,1.49,0,0,0,2.05,0v-9.56s-.12-6.57-2.62-6.57Z" style="fill:#92E3A9"></path><path d="M242.06,376.36a2.62,2.62,0,0,1-.35,2.74,14.83,14.83,0,0,0-3,8.2c-.62,6.75-.95,8.58-4.92,8l-4-.59s-5.64,6.49-5.49,7.52,2.12,2.12,7.17,1.05,9.22-3,9.65-8.37.92-8.58,1.6-9.47l2.31,6.8a1.5,1.5,0,0,0,2-.31l-1.45-9.45s-1.11-6.48-3.58-6.1Z" style="opacity:0.6000000000000001"></path><path d="M183.07,348.66a2.65,2.65,0,0,1-.76,2.66A14.86,14.86,0,0,0,178.1,359c-1.63,6.59-2.24,8.35-6.07,7.16l-3.83-1.19s-6.56,5.57-6.56,6.61,1.77,2.41,6.93,2.12,9.56-1.54,10.8-6.82,2.21-8.34,3-9.12l1.26,7.07a1.49,1.49,0,0,0,2.05,0v-9.56s-.12-6.57-2.62-6.57Z" style="opacity:0.6000000000000001"></path><path d="M190.25,270.92l-.39,4.56s-22.49,20-27.13,27c-3,4.54,3.65,24.72,3.65,24.72s8.05,2.89,13.44-3.23a48.81,48.81,0,0,0-2.52-12.71l24.86-17.34-1-22.56Z" style="fill:#92E3A9"></path><path d="M190.25,270.92l-.39,4.56s-22.49,20-27.13,27c-3,4.54,3.65,24.72,3.65,24.72s8.05,2.89,13.44-3.23a48.81,48.81,0,0,0-2.52-12.71l24.86-17.34-1-22.56Z" style="opacity:0.30000000000000004"></path><path d="M199.09,288.51s-4-3.76-5.55-7.74c0,0,0,2.93,4.3,8.86l2.27,5.73,2-1.43Z" style="fill:#92E3A9"></path><path d="M199.09,288.51s-4-3.76-5.55-7.74c0,0,0,2.93,4.3,8.86l2.27,5.73,2-1.43Z" style="opacity:0.5"></path><path d="M206.7,192.14a16.83,16.83,0,0,0-8.46,1.69,9.08,9.08,0,0,0-3.62-.74,9.2,9.2,0,0,0-2.54,18l.92,7.39-.53,0a7,7,0,0,0-7.05,7,6.27,6.27,0,0,0,.08,1,9.2,9.2,0,0,0,4.35,17.3h27.41a95.86,95.86,0,0,0,4.38-28.34C221.64,199.75,216.05,192.74,206.7,192.14Z" style="fill:#263238"></path><path d="M145,279.62s-3.61,3.44-4.35,4.33-.91,1.6.56,1.59,5.89-4.4,5.89-4.4l7.7,2s1.78-1.58,4.61-6.48l-9.7-.37Z" style="fill:#945959"></path><path d="M153.93,272.47s-5.15,1.3-6.66,2.35-1.89,3.4-2.86,4.38-.54,1.91.87,1.63,2.79-2.44,2.79-2.44a6.72,6.72,0,0,0,3.61.44c1.56-.42,7.69-2.14,7.69-2.14Z" style="fill:#945959"></path><path d="M144.81,281a1,1,0,0,1-.95-.45.09.09,0,0,1,0-.13.1.1,0,0,1,.14,0c.15.3.61.41,1.22.29,1.34-.27,2.72-2.37,2.73-2.4a.1.1,0,0,1,.12,0,6.62,6.62,0,0,0,3.54.43.1.1,0,0,1,0,.2,6.64,6.64,0,0,1-3.59-.41c-.26.38-1.51,2.15-2.81,2.41A3,3,0,0,1,144.81,281Z" style="fill:#703838"></path><path d="M149.26,283.38a2.14,2.14,0,0,1-1.53.7,1.48,1.48,0,0,1-1.5-1.42c-.07-.77.81-4.18,2.46-3.35.73.36.51,2.46.51,2.46Z" style="fill:#945959"></path><path d="M146.29,282.1h0a.1.1,0,0,1-.08-.11c.15-.83.64-2.35,1.51-2.78a1.1,1.1,0,0,1,1,0c.78.39.57,2.47.56,2.56a.1.1,0,0,1-.2,0c.05-.56.09-2.09-.45-2.36a.91.91,0,0,0-.86,0,4,4,0,0,0-1.4,2.63A.11.11,0,0,1,146.29,282.1Z" style="fill:#703838"></path><path d="M151.52,283.91a2.14,2.14,0,0,1-1.53.7,1.49,1.49,0,0,1-1.5-1.42c-.07-.77.81-4.19,2.46-3.35.88.45.51,2.46.51,2.46Z" style="fill:#945959"></path><path d="M154.76,283.17S153,285,152,284.53s-.89-2.32.59-4.24c.51-.66,1.66-.9,1.62.29a5.59,5.59,0,0,1-.41,2Z" style="fill:#945959"></path><path d="M148.63,283.84a.1.1,0,0,1-.09-.06,1.84,1.84,0,0,1-.15-.58c0-.58.42-2.7,1.42-3.38a1.09,1.09,0,0,1,1.19-.07c.94.47.58,2.48.56,2.57a.1.1,0,0,1-.12.08.1.1,0,0,1-.08-.12s.35-1.94-.45-2.35a.89.89,0,0,0-1,.06,4.73,4.73,0,0,0-1.32,3.19,1.47,1.47,0,0,0,.13.52.1.1,0,0,1-.06.13Z" style="fill:#703838"></path><path d="M151.37,283.94a.1.1,0,0,1-.1-.07c-.29-.9.17-2.29,1.21-3.65a1.33,1.33,0,0,1,1.34-.54c.18.07.48.27.46.9a5.64,5.64,0,0,1-.42,2,.1.1,0,0,1-.13.05.11.11,0,0,1,0-.14,5.6,5.6,0,0,0,.39-1.92c0-.27,0-.6-.32-.71a1.15,1.15,0,0,0-1.11.48c-1,1.3-1.45,2.62-1.17,3.46a.1.1,0,0,1-.07.13Z" style="fill:#703838"></path><path d="M194,229.11h-.61a11.46,11.46,0,0,0-9,4.58c-2.8,3.73-14.48,20.78-14.48,20.78s-9.46,10.06-15.93,18l5.44,4.22s18-15.55,19.46-17.21,8.78-11.05,8.78-11.05Z" style="fill:#945959"></path><path d="M210.55,228.73l5.81.45L215.67,259l-.34,1.56a13.51,13.51,0,0,0,0,5.52l.37,1.81s-12.73,6.47-25.13,0V236.38l4.08-7.18,6-.37Z" style="fill:#945959"></path><path d="M200.63,222.58v6.25s-6.36,7-.16,7.52,10.08-7.62,10.08-7.62V216.91Z" style="fill:#945959"></path><path d="M210.44,214.86v.36c-2.21,8.72-8,10.62-9.81,11.07l-.07-13.51,9.6,0Z" style="fill:#703838"></path><path d="M201.25,195.43c-3.66.3-11.28,3-11.39,12.65s1.36,17,6.37,17.33,16.2-4.22,16.72-16.75S204.83,195.14,201.25,195.43Z" style="fill:#945959"></path><polygon points="196.62 211.96 196.71 217.63 193.37 216.66 196.62 211.96" style="fill:#703838"></polygon><path d="M201.6,211.8a1.16,1.16,0,0,1-2.31,0,1.16,1.16,0,0,1,1.14-1.18A1.15,1.15,0,0,1,201.6,211.8Z" style="fill:#263238"></path><path d="M194,211.1a1.16,1.16,0,1,1-1.17-1.14A1.16,1.16,0,0,1,194,211.1Z" style="fill:#263238"></path><path d="M191.4,208.73l2.24-1.37s-.88-.89-1.74-.34A1.57,1.57,0,0,0,191.4,208.73Z" style="fill:#92E3A9"></path><path d="M196,219.61a34.78,34.78,0,0,0,3.41-1.88s.73,1.86-.79,2.62A2.15,2.15,0,0,1,196,219.61Z" style="fill:#703838"></path><path d="M191.4,208.73l2.24-1.37s-.88-.89-1.74-.34A1.57,1.57,0,0,0,191.4,208.73Z" style="fill:#263238"></path><path d="M202,209.49l-2.24-1.37s.88-.89,1.73-.34A1.58,1.58,0,0,1,202,209.49Z" style="fill:#263238"></path><path d="M191.37,196.77a3.34,3.34,0,0,0-.89,6,9.24,9.24,0,0,0,4.87,1.25,11.38,11.38,0,0,0,5.86-1.56s.85,7,6.09,7.67c0,0-.23,5.19,2.11,5.19H214v-7.76a13.06,13.06,0,0,0-16.69-12.54Z" style="fill:#263238"></path><path d="M209.39,214.87a5.81,5.81,0,0,1,.5-2.57,2.73,2.73,0,0,1,2.39-1.83c2.73-.05,3.07,2.59,3,3.52a5.6,5.6,0,0,1-5.84,5.16Z" style="fill:#945959"></path><path d="M197.12,229s-4.4,7.56-4.4,10.66l15.94.82s2.12-8.87,4.55-11.57l3.15.24,3.27,13.52-3,16.34s-15.48,5.7-27.15,0c0,0,.09-5.19-.38-6.75,0,0-3.73-1.26-4-6.37-.34-6.85,8.88-16.81,8.88-16.81Z" style="fill:#92E3A9"></path><path d="M216.36,229.18s-6.68,10.34,3.27,13.52c5.3,1.7,15.33,2.27,20.9,2.46a6.31,6.31,0,0,0,5.81-3.38l10-19.13L251,218.28s-7.07,9.55-10.53,15.42C240.51,233.7,219.5,229.42,216.36,229.18Z" style="fill:#945959"></path><path d="M256,208s2.56-4.28,3.26-5.2,1.36-1.24,1.68.2-3,6.71-3,6.71l3.69,7.06s-1.15,2.08-5.3,5.93l-2.5-9.38Z" style="fill:#945959"></path><path d="M251,218.28s.13-5.32.82-7,2.9-2.59,3.64-3.76,1.74-.94,1.78.49-1.76,3.27-1.76,3.27a6.71,6.71,0,0,1,1.23,3.41c-.07,1.62-.39,8-.39,8Z" style="fill:#945959"></path><path d="M256.75,214.77h0a.1.1,0,0,1-.1-.1,6.55,6.55,0,0,0-1.2-3.35.09.09,0,0,1,0-.13s1.77-1.82,1.73-3.2c0-.62-.22-1-.55-1.12a.09.09,0,0,1-.07-.12.1.1,0,0,1,.12-.08c.42.11.68.6.7,1.32,0,1.32-1.41,2.94-1.73,3.28a6.52,6.52,0,0,1,1.2,3.41A.11.11,0,0,1,256.75,214.77Z" style="fill:#703838"></path><path d="M260.65,211.31a2.15,2.15,0,0,0,.34-1.65,1.47,1.47,0,0,0-1.71-1.14c-.77.09-3.9,1.7-2.72,3.13.51.63,2.5,0,2.5,0Z" style="fill:#945959"></path><path d="M257.39,212a1.13,1.13,0,0,1-.91-.3,1.09,1.09,0,0,1-.25-1c.23-.94,1.6-1.75,2.37-2.08a.1.1,0,1,1,.08.18c-.95.41-2.07,1.2-2.25,1.95a.89.89,0,0,0,.2.83c.39.47,1.87.1,2.4-.08a.1.1,0,1,1,.07.19A6.33,6.33,0,0,1,257.39,212Z" style="fill:#703838"></path><path d="M261.67,213.4a2.2,2.2,0,0,0,.34-1.65,1.48,1.48,0,0,0-1.71-1.14c-.78.09-3.91,1.71-2.73,3.13.63.77,2.51,0,2.51,0Z" style="fill:#945959"></path><path d="M261.66,216.72s1.43-2.08.71-3-2.46-.35-4,1.51c-.53.64-.51,1.82.64,1.51a5.57,5.57,0,0,0,1.83-.82Z" style="fill:#945959"></path><path d="M258.46,214.17a1.22,1.22,0,0,1-1-.36,1.12,1.12,0,0,1-.2-1.18c.45-1.12,2.41-2,3-2.13a2.32,2.32,0,0,1,.59,0,.11.11,0,0,1,.08.12.1.1,0,0,1-.12.08,1.56,1.56,0,0,0-.53,0c-.53.07-2.42,1-2.83,2a.9.9,0,0,0,.17,1c.57.69,2.37-.07,2.39-.08a.1.1,0,0,1,.13.05.11.11,0,0,1-.05.14A5,5,0,0,1,258.46,214.17Z" style="fill:#703838"></path><path d="M258.66,216.88a.68.68,0,0,1-.61-.3,1.3,1.3,0,0,1,.23-1.43c1.09-1.31,2.34-2.08,3.29-2a.1.1,0,0,1,.1.11.1.1,0,0,1-.12.09c-.88-.07-2.06.65-3.11,1.91a1.14,1.14,0,0,0-.22,1.19c.16.25.5.22.76.16a5.49,5.49,0,0,0,1.79-.82.11.11,0,0,1,.14,0,.12.12,0,0,1,0,.15,5.74,5.74,0,0,1-1.86.84A1.41,1.41,0,0,1,258.66,216.88Z" style="fill:#703838"></path><path d="M216.19,269.57s11.25,11,11.87,33.44,2.34,22,2.34,22,7.38,11.23,7.82,21c.29,6.42.44,20.35.44,20.35s-3.31,5.42-10.53,1.64l-10.82-35.79-18.22-43.65V271Z" style="fill:#92E3A9"></path><path d="M216.19,269.57s11.25,11,11.87,33.44,2.34,22,2.34,22,7.38,11.23,7.82,21c.29,6.42.44,20.35.44,20.35s-3.31,5.42-10.53,1.64l-10.82-35.79-18.22-43.65V271Z" style="opacity:0.30000000000000004"></path><path d="M223.21,351.69,228.13,368c7.22,3.78,10.53-1.64,10.53-1.64s-.13-12.12-.38-19a10.05,10.05,0,0,1-5.64,4.84C227.65,353.77,224.47,352.43,223.21,351.69Z" style="fill:#92E3A9"></path><path d="M237.72,367.42a7.49,7.49,0,0,1-1.75,1.2.68.68,0,0,1,0-.14c-.53-6.9-1.14-12.44-1.8-16.93-2.08-14.34-4.59-17.9-6.26-20.25a12.11,12.11,0,0,1-1.72-3.11c-1-3-1.49-8.65-2-15.22-.46-5.24-1-11.17-1.83-16.79-1.87-12.28-12.35-25.42-12.46-25.54a.93.93,0,0,1,.14-1.31.92.92,0,0,1,1.3.14c.44.55,10.91,13.64,12.86,26.44.86,5.67,1.38,11.63,1.83,16.89.56,6.46,1,12,2,14.8a9.63,9.63,0,0,0,1.48,2.62c1.83,2.59,4.34,6.18,6.45,20.15C236.53,354.86,237.17,360.45,237.72,367.42Z" style="fill:#92E3A9"></path><path d="M190.54,266.64s3.42,2.6,12.06,2.6c8.21,0,12.53-4,12.53-4l1.06,4.33a25.5,25.5,0,0,1-25.94,1.35Z" style="fill:#92E3A9"></path><path d="M190.54,266.64s3.42,2.6,12.06,2.6c8.21,0,12.53-4,12.53-4l1.06,4.33a25.5,25.5,0,0,1-25.94,1.35Z" style="opacity:0.6000000000000001"></path></g></svg>